G04 #@! TF.GenerationSoftware,KiCad,Pcbnew,9.0.1*
G04 #@! TF.CreationDate,2025-05-14T21:28:53+02:00*
G04 #@! TF.ProjectId,ferris-sweep-compact,66657272-6973-42d7-9377-6565702d636f,0.1*
G04 #@! TF.SameCoordinates,Original*
G04 #@! TF.FileFunction,Profile,NP*
%FSLAX46Y46*%
G04 Gerber Fmt 4.6, Leading zero omitted, Abs format (unit mm)*
G04 Created by KiCad (PCBNEW 9.0.1) date 2025-05-14 21:28:53*
%MOMM*%
%LPD*%
G01*
G04 APERTURE LIST*
G04 #@! TA.AperFunction,Profile*
%ADD10C,0.050000*%
G04 #@! TD*
G04 APERTURE END LIST*
D10*
X55060700Y-73060660D02*
X68500000Y-73060660D01*
X99441356Y-90871288D02*
G75*
G02*
X98122244Y-88463498I558644J1871288D01*
G01*
X100688028Y-71560661D02*
G75*
G02*
X102122245Y-73500000I0J-1499999D01*
G01*
X98122245Y-88463498D02*
X102122245Y-73500000D01*
X92000000Y-71560662D02*
X100688028Y-71560662D01*
X92000000Y-71560662D02*
G75*
G02*
X89964999Y-69629744I-35002J2000917D01*
G01*
X89964999Y-69629531D02*
X89949667Y-68961440D01*
X88449667Y-67461439D02*
G75*
G02*
X89949667Y-68961439I0J-1500000D01*
G01*
X71545368Y-67461439D02*
X88449667Y-67461439D01*
X70029269Y-68961439D02*
G75*
G02*
X71545368Y-67461439I1500085J0D01*
G01*
X69999999Y-71560660D02*
X70029354Y-68961439D01*
X70000000Y-71560660D02*
G75*
G02*
X68500000Y-73060660I-1500000J0D01*
G01*
X53560660Y-74560660D02*
G75*
G02*
X55060660Y-73060660I1500000J0D01*
G01*
X53535001Y-83533100D02*
X53559563Y-74560660D01*
X53535001Y-83533100D02*
G75*
G02*
X52035001Y-85033100I-1500000J0D01*
G01*
X37846000Y-85033119D02*
X52035000Y-85033100D01*
X122439340Y-24060660D02*
G75*
G02*
X123939340Y-25560660I0J-1500000D01*
G01*
X107939340Y-24060660D02*
X122439340Y-24060660D01*
X107939340Y-24060660D02*
G75*
G02*
X106439340Y-22560660I0J1500000D01*
G01*
X104939340Y-21060660D02*
G75*
G02*
X106439340Y-22560660I0J-1500000D01*
G01*
X89878640Y-21060660D02*
X104939340Y-21060660D01*
X89878640Y-21060660D02*
G75*
G02*
X88378640Y-19560660I0J1500000D01*
G01*
X88378640Y-19560660D02*
X88378641Y-17060660D01*
X86878641Y-15560660D02*
G75*
G02*
X88378641Y-17060660I0J-1500000D01*
G01*
X73500000Y-15560700D02*
X86878636Y-15560660D01*
X72000000Y-17060660D02*
G75*
G02*
X73500000Y-15560660I1500000J0D01*
G01*
X72000000Y-21000000D02*
X72000000Y-17060700D01*
X72000000Y-21000000D02*
G75*
G02*
X70500000Y-22500000I-1500000J0D01*
G01*
X55504242Y-22500006D02*
X70500000Y-22500000D01*
X54000000Y-24000000D02*
G75*
G02*
X55500000Y-22500000I1500000J0D01*
G01*
X54000000Y-33060700D02*
X54000000Y-24000000D01*
X54000000Y-33060660D02*
G75*
G02*
X52500000Y-34560660I-1500000J0D01*
G01*
X37268055Y-34560666D02*
X52500000Y-34560660D01*
X35768055Y-36060660D02*
X35786019Y-83102794D01*
X35768055Y-36060660D02*
G75*
G02*
X37268055Y-34560660I1500000J0D01*
G01*
X143002000Y-75184000D02*
G75*
G02*
X141255304Y-82508150I-16773852J129949D01*
G01*
X142990000Y-38758000D02*
X143002000Y-75184000D01*
X123939292Y-36118283D02*
X123939340Y-25560700D01*
X141255304Y-82508150D02*
X130748000Y-101101265D01*
X125974293Y-38049201D02*
X142240000Y-38008000D01*
X142240000Y-38008000D02*
G75*
G02*
X142990000Y-38758000I0J-750000D01*
G01*
X130748000Y-101101265D02*
G75*
G02*
X128016000Y-101700000I-1662000J1051265D01*
G01*
X37846000Y-85033119D02*
G75*
G02*
X35786019Y-83102794I-59982J2000324D01*
G01*
X99441356Y-90871288D02*
G75*
G02*
X128016000Y-101700000I-15963586J-85240000D01*
G01*
X125974293Y-38049201D02*
G75*
G02*
X123939292Y-36118283I-35002J2000917D01*
G01*
M02*
